<svg xmlns="http://www.w3.org/2000/svg" width="1100" height="620" viewBox="0 0 1100 620" role="img">

<defs>
  <marker id="arrow" markerWidth="10" markerHeight="10" refX="8" refY="3" orient="auto" markerUnits="strokeWidth">
    <path d="M0,0 L0,6 L9,3 z" fill="#1f2933" />
  </marker>
</defs>
<rect x="0.0" y="0.0" width="1100.0" height="620.0" rx="0" fill="#ffffff" stroke="none" />
<text x="70.0" y="42.0" font-size="24" fill="#1f2933" font-weight="700" text-anchor="start" >Curated Reporting Data Model</text>
<text x="70.0" y="66.0" font-size="13" fill="#5f6c7b" font-weight="400" text-anchor="start" >Fact and dimension outputs used for validation and dashboarding</text>
<rect x="70.0" y="130.0" width="190.0" height="62.0" rx="6" fill="#e8f1ff" stroke="#334e68" />
<text x="165.0" y="166.0" font-size="14" fill="#1f2933" font-weight="700" text-anchor="middle" >dim_customer</text>
<rect x="70.0" y="260.0" width="190.0" height="62.0" rx="6" fill="#e8f1ff" stroke="#334e68" />
<text x="165.0" y="296.0" font-size="14" fill="#1f2933" font-weight="700" text-anchor="middle" >dim_product</text>
<rect x="70.0" y="390.0" width="190.0" height="62.0" rx="6" fill="#e8f1ff" stroke="#334e68" />
<text x="165.0" y="426.0" font-size="14" fill="#1f2933" font-weight="700" text-anchor="middle" >dim_seller</text>
<rect x="440.0" y="130.0" width="210.0" height="62.0" rx="6" fill="#f3e8ff" stroke="#334e68" />
<text x="545.0" y="166.0" font-size="14" fill="#1f2933" font-weight="700" text-anchor="middle" >fact_orders</text>
<rect x="440.0" y="260.0" width="210.0" height="62.0" rx="6" fill="#f3e8ff" stroke="#334e68" />
<text x="545.0" y="296.0" font-size="14" fill="#1f2933" font-weight="700" text-anchor="middle" >fact_order_items</text>
<rect x="815.0" y="130.0" width="190.0" height="62.0" rx="6" fill="#fff3dd" stroke="#334e68" />
<text x="910.0" y="166.0" font-size="14" fill="#1f2933" font-weight="700" text-anchor="middle" >fact_payments</text>
<rect x="785.0" y="260.0" width="250.0" height="62.0" rx="6" fill="#fff3dd" stroke="#334e68" />
<text x="910.0" y="296.0" font-size="14" fill="#1f2933" font-weight="700" text-anchor="middle" >fact_delivery_performance</text>
<rect x="430.0" y="500.0" width="240.0" height="62.0" rx="6" fill="#eef2f3" stroke="#334e68" />
<text x="550.0" y="536.0" font-size="14" fill="#1f2933" font-weight="700" text-anchor="middle" >monthly_kpi_summary</text>
<line x1="260.0" y1="161.0" x2="440.0" y2="161.0" stroke="#1f2933" stroke-width="2" marker-end="url(#arrow)"/>
<line x1="260.0" y1="291.0" x2="440.0" y2="291.0" stroke="#1f2933" stroke-width="2" marker-end="url(#arrow)"/>
<line x1="260.0" y1="421.0" x2="440.0" y2="291.0" stroke="#1f2933" stroke-width="2" marker-end="url(#arrow)"/>
<line x1="650.0" y1="161.0" x2="815.0" y2="161.0" stroke="#1f2933" stroke-width="2" marker-end="url(#arrow)"/>
<line x1="650.0" y1="161.0" x2="785.0" y2="291.0" stroke="#1f2933" stroke-width="2" marker-end="url(#arrow)"/>
<line x1="545.0" y1="322.0" x2="545.0" y2="500.0" stroke="#1f2933" stroke-width="2" marker-end="url(#arrow)"/>
<line x1="545.0" y1="192.0" x2="545.0" y2="500.0" stroke="#1f2933" stroke-width="2" marker-end="url(#arrow)"/>
</svg>